<svg xmlns="http://www.w3.org/2000/svg" xmlns:xlink="http://www.w3.org/1999/xlink" width="500" zoomAndPan="magnify" viewBox="0 0 375 374.999991" height="500" preserveAspectRatio="xMidYMid meet" version="1.0"><defs><clipPath id="46d075b265"><path d="M 3.777344 3.777344 L 371.277344 3.777344 L 371.277344 371.277344 L 3.777344 371.277344 Z M 3.777344 3.777344 " clip-rule="nonzero"/></clipPath></defs><rect x="-37.5" width="450" fill="#ffffff" y="-37.499999" height="449.999989" fill-opacity="1"/><rect x="-37.5" width="450" fill="#ffffff" y="-37.499999" height="449.999989" fill-opacity="1"/><g clip-path="url(#46d075b265)"><path fill="#ffffff" d="M 111.425781 5.0625 C 91.875 5.984375 78.523438 9.105469 66.851562 13.691406 C 54.769531 18.398438 44.53125 24.714844 34.34375 34.941406 C 24.15625 45.164062 17.882812 55.410156 13.210938 67.507812 C 8.6875 79.207031 5.621094 92.566406 4.757812 112.128906 C 3.894531 131.691406 3.703125 137.980469 3.796875 187.878906 C 3.894531 237.777344 4.113281 244.03125 5.0625 263.636719 C 5.996094 283.183594 9.105469 296.53125 13.691406 308.207031 C 18.40625 320.285156 24.714844 330.519531 34.945312 340.710938 C 45.171875 350.902344 55.410156 357.160156 67.539062 361.84375 C 79.222656 366.359375 92.589844 369.4375 112.148438 370.296875 C 131.707031 371.152344 138.003906 371.351562 187.886719 371.253906 C 237.769531 371.160156 244.050781 370.9375 263.648438 370.007812 C 283.25 369.078125 296.527344 365.949219 308.207031 361.382812 C 320.285156 356.65625 330.527344 350.359375 340.710938 340.125 C 350.894531 329.894531 357.164062 319.640625 361.835938 307.535156 C 366.363281 295.851562 369.4375 282.484375 370.289062 262.941406 C 371.144531 243.328125 371.347656 237.066406 371.25 187.171875 C 371.15625 137.28125 370.929688 131.027344 370 111.433594 C 369.070312 91.835938 365.957031 78.53125 361.375 66.847656 C 356.652344 54.765625 350.351562 44.539062 340.125 34.339844 C 329.902344 24.144531 319.640625 17.878906 307.539062 13.21875 C 295.847656 8.695312 282.488281 5.609375 262.929688 4.765625 C 243.371094 3.917969 237.078125 3.703125 187.171875 3.796875 C 137.269531 3.894531 131.023438 4.105469 111.425781 5.0625 M 113.570312 337.238281 C 95.65625 336.460938 85.925781 333.484375 79.445312 330.992188 C 70.859375 327.683594 64.746094 323.683594 58.285156 317.285156 C 51.824219 310.886719 47.855469 304.75 44.503906 296.183594 C 41.984375 289.703125 38.953125 279.984375 38.117188 262.070312 C 37.203125 242.707031 37.011719 236.890625 36.90625 187.835938 C 36.800781 138.777344 36.988281 132.972656 37.835938 113.601562 C 38.601562 95.699219 41.597656 85.960938 44.082031 79.480469 C 47.390625 70.886719 51.375 64.78125 57.789062 58.324219 C 64.199219 51.867188 70.320312 47.890625 78.894531 44.539062 C 85.367188 42.011719 95.085938 39.003906 112.992188 38.152344 C 132.371094 37.234375 138.179688 37.050781 187.230469 36.941406 C 236.277344 36.835938 242.101562 37.019531 261.484375 37.871094 C 279.386719 38.652344 289.128906 41.617188 295.601562 44.121094 C 304.1875 47.429688 310.300781 51.402344 316.757812 57.824219 C 323.214844 64.25 327.195312 70.34375 330.546875 78.9375 C 333.078125 85.394531 336.085938 95.105469 336.929688 113.027344 C 337.851562 132.40625 338.0625 138.214844 338.148438 187.261719 C 338.238281 236.308594 338.066406 242.132812 337.214844 261.496094 C 336.433594 279.414062 333.464844 289.144531 330.96875 295.632812 C 327.660156 304.214844 323.675781 310.332031 317.257812 316.785156 C 310.839844 323.242188 304.730469 327.214844 296.152344 330.566406 C 289.683594 333.09375 279.957031 336.105469 262.0625 336.960938 C 242.683594 337.871094 236.878906 338.0625 187.808594 338.167969 C 138.742188 338.273438 132.953125 338.078125 113.574219 337.238281 M 263.367188 89.320312 C 263.367188 90.042969 263.40625 90.761719 263.476562 91.480469 C 263.550781 92.199219 263.65625 92.914062 263.796875 93.621094 C 263.941406 94.328125 264.117188 95.027344 264.328125 95.71875 C 264.539062 96.410156 264.78125 97.089844 265.058594 97.753906 C 265.335938 98.421875 265.648438 99.074219 265.988281 99.710938 C 266.332031 100.347656 266.703125 100.964844 267.105469 101.5625 C 267.507812 102.164062 267.9375 102.742188 268.394531 103.300781 C 268.855469 103.859375 269.339844 104.390625 269.851562 104.902344 C 270.363281 105.410156 270.898438 105.894531 271.457031 106.351562 C 272.015625 106.808594 272.597656 107.238281 273.199219 107.636719 C 273.800781 108.039062 274.417969 108.40625 275.058594 108.746094 C 275.695312 109.085938 276.347656 109.394531 277.015625 109.667969 C 277.683594 109.945312 278.363281 110.1875 279.054688 110.394531 C 279.746094 110.601562 280.445312 110.777344 281.152344 110.917969 C 281.863281 111.054688 282.574219 111.160156 283.292969 111.230469 C 284.015625 111.300781 284.734375 111.332031 285.457031 111.332031 C 286.179688 111.332031 286.898438 111.292969 287.617188 111.222656 C 288.335938 111.148438 289.050781 111.042969 289.757812 110.902344 C 290.464844 110.757812 291.164062 110.582031 291.855469 110.371094 C 292.546875 110.160156 293.226562 109.917969 293.890625 109.640625 C 294.558594 109.359375 295.210938 109.050781 295.847656 108.710938 C 296.484375 108.367188 297.101562 107.996094 297.699219 107.59375 C 298.300781 107.191406 298.878906 106.761719 299.4375 106.300781 C 299.996094 105.84375 300.527344 105.355469 301.039062 104.84375 C 301.546875 104.332031 302.03125 103.796875 302.488281 103.238281 C 302.945312 102.679688 303.375 102.101562 303.773438 101.5 C 304.175781 100.898438 304.542969 100.277344 304.882812 99.640625 C 305.222656 99.003906 305.527344 98.351562 305.804688 97.683594 C 306.078125 97.015625 306.320312 96.335938 306.53125 95.644531 C 306.738281 94.953125 306.910156 94.253906 307.050781 93.542969 C 307.191406 92.835938 307.296875 92.121094 307.363281 91.402344 C 307.433594 90.683594 307.46875 89.964844 307.46875 89.242188 C 307.464844 88.519531 307.429688 87.796875 307.355469 87.078125 C 307.285156 86.359375 307.175781 85.648438 307.035156 84.941406 C 306.894531 84.230469 306.714844 83.53125 306.503906 82.839844 C 306.292969 82.152344 306.050781 81.472656 305.773438 80.804688 C 305.496094 80.136719 305.183594 79.488281 304.84375 78.851562 C 304.5 78.214844 304.128906 77.597656 303.726562 76.996094 C 303.324219 76.398438 302.894531 75.820312 302.433594 75.261719 C 301.976562 74.703125 301.492188 74.171875 300.980469 73.660156 C 300.46875 73.152344 299.929688 72.667969 299.371094 72.210938 C 298.8125 71.753906 298.234375 71.324219 297.632812 70.925781 C 297.03125 70.523438 296.410156 70.15625 295.773438 69.816406 C 295.136719 69.476562 294.484375 69.167969 293.816406 68.894531 C 293.148438 68.621094 292.46875 68.378906 291.777344 68.167969 C 291.085938 67.960938 290.382812 67.789062 289.675781 67.648438 C 288.96875 67.507812 288.253906 67.402344 287.535156 67.335938 C 286.816406 67.265625 286.09375 67.230469 285.375 67.234375 C 284.652344 67.234375 283.929688 67.269531 283.210938 67.34375 C 282.496094 67.414062 281.78125 67.523438 281.074219 67.664062 C 280.367188 67.808594 279.667969 67.984375 278.976562 68.195312 C 278.285156 68.40625 277.605469 68.648438 276.941406 68.925781 C 276.273438 69.203125 275.621094 69.515625 274.984375 69.855469 C 274.351562 70.199219 273.730469 70.570312 273.132812 70.972656 C 272.53125 71.375 271.953125 71.804688 271.398438 72.261719 C 270.839844 72.722656 270.304688 73.207031 269.796875 73.71875 C 269.289062 74.230469 268.804688 74.765625 268.347656 75.324219 C 267.890625 75.882812 267.460938 76.464844 267.0625 77.066406 C 266.660156 77.667969 266.292969 78.285156 265.953125 78.921875 C 265.613281 79.558594 265.304688 80.210938 265.03125 80.878906 C 264.753906 81.546875 264.515625 82.226562 264.304688 82.917969 C 264.097656 83.609375 263.921875 84.308594 263.785156 85.019531 C 263.644531 85.726562 263.539062 86.441406 263.46875 87.160156 C 263.398438 87.875 263.367188 88.597656 263.367188 89.320312 M 93.179688 187.710938 C 93.28125 239.820312 135.601562 281.96875 187.703125 281.871094 C 239.804688 281.773438 281.980469 239.453125 281.882812 187.34375 C 281.78125 135.230469 239.449219 93.070312 187.34375 93.175781 C 135.234375 93.277344 93.078125 135.605469 93.179688 187.710938 M 126.273438 187.644531 C 126.269531 185.636719 126.367188 183.636719 126.558594 181.640625 C 126.75 179.644531 127.039062 177.660156 127.429688 175.691406 C 127.816406 173.722656 128.296875 171.777344 128.878906 169.859375 C 129.457031 167.9375 130.128906 166.050781 130.890625 164.195312 C 131.65625 162.339844 132.507812 160.527344 133.449219 158.757812 C 134.390625 156.984375 135.417969 155.265625 136.53125 153.59375 C 137.640625 151.925781 138.832031 150.3125 140.101562 148.757812 C 141.371094 147.207031 142.714844 145.71875 144.128906 144.296875 C 145.546875 142.875 147.027344 141.527344 148.574219 140.25 C 150.125 138.976562 151.730469 137.78125 153.394531 136.660156 C 155.0625 135.542969 156.777344 134.511719 158.546875 133.5625 C 160.3125 132.613281 162.121094 131.75 163.972656 130.980469 C 165.828125 130.210938 167.710938 129.53125 169.628906 128.945312 C 171.546875 128.359375 173.492188 127.867188 175.457031 127.472656 C 177.425781 127.078125 179.40625 126.777344 181.402344 126.578125 C 183.398438 126.378906 185.398438 126.277344 187.40625 126.273438 C 189.410156 126.269531 191.414062 126.363281 193.410156 126.554688 C 195.40625 126.746094 197.386719 127.039062 199.355469 127.425781 C 201.324219 127.8125 203.269531 128.296875 205.191406 128.875 C 207.109375 129.453125 209 130.125 210.855469 130.886719 C 212.707031 131.652344 214.523438 132.503906 216.292969 133.445312 C 218.0625 134.390625 219.785156 135.414062 221.453125 136.527344 C 223.125 137.636719 224.738281 138.828125 226.289062 140.097656 C 227.84375 141.367188 229.332031 142.710938 230.75 144.125 C 232.171875 145.542969 233.519531 147.023438 234.796875 148.570312 C 236.074219 150.121094 237.269531 151.726562 238.386719 153.390625 C 239.503906 155.058594 240.539062 156.773438 241.488281 158.542969 C 242.4375 160.308594 243.296875 162.117188 244.070312 163.972656 C 244.839844 165.824219 245.519531 167.707031 246.105469 169.625 C 246.691406 171.542969 247.179688 173.488281 247.578125 175.453125 C 247.972656 177.421875 248.269531 179.402344 248.46875 181.398438 C 248.671875 183.394531 248.773438 185.394531 248.777344 187.402344 C 248.78125 189.40625 248.6875 191.410156 248.496094 193.40625 C 248.300781 195.402344 248.011719 197.386719 247.625 199.351562 C 247.238281 201.320312 246.753906 203.265625 246.175781 205.1875 C 245.597656 207.109375 244.925781 208.996094 244.160156 210.851562 C 243.398438 212.707031 242.542969 214.519531 241.601562 216.289062 C 240.660156 218.058594 239.632812 219.78125 238.523438 221.449219 C 237.410156 223.121094 236.21875 224.734375 234.949219 226.285156 C 233.679688 227.839844 232.339844 229.328125 230.921875 230.746094 C 229.507812 232.167969 228.027344 233.519531 226.476562 234.792969 C 224.929688 236.070312 223.320312 237.265625 221.65625 238.382812 C 219.992188 239.5 218.273438 240.535156 216.507812 241.484375 C 214.738281 242.433594 212.929688 243.292969 211.078125 244.066406 C 209.226562 244.835938 207.339844 245.515625 205.421875 246.101562 C 203.503906 246.6875 201.5625 247.179688 199.59375 247.574219 C 197.628906 247.96875 195.648438 248.265625 193.652344 248.46875 C 191.65625 248.667969 189.652344 248.769531 187.648438 248.773438 C 185.640625 248.777344 183.640625 248.683594 181.644531 248.492188 C 179.644531 248.300781 177.664062 248.007812 175.695312 247.621094 C 173.726562 247.234375 171.78125 246.75 169.859375 246.171875 C 167.941406 245.59375 166.050781 244.921875 164.199219 244.160156 C 162.34375 243.394531 160.527344 242.542969 158.757812 241.601562 C 156.988281 240.660156 155.265625 239.632812 153.597656 238.519531 C 151.925781 237.410156 150.3125 236.21875 148.761719 234.949219 C 147.207031 233.679688 145.71875 232.335938 144.296875 230.921875 C 142.878906 229.507812 141.527344 228.023438 140.253906 226.476562 C 138.976562 224.925781 137.78125 223.320312 136.664062 221.65625 C 135.546875 219.988281 134.511719 218.273438 133.5625 216.503906 C 132.613281 214.738281 131.753906 212.925781 130.980469 211.074219 C 130.210938 209.222656 129.53125 207.339844 128.945312 205.417969 C 128.359375 203.5 127.871094 201.558594 127.472656 199.589844 C 127.078125 197.625 126.78125 195.644531 126.582031 193.648438 C 126.378906 191.652344 126.277344 189.648438 126.273438 187.644531 " fill-opacity="1" fill-rule="nonzero"/></g></svg>